<?xml version="1.0" standalone="no"?><!DOCTYPE svg PUBLIC "-//W3C//DTD SVG 1.1//EN" "http://www.w3.org/Graphics/SVG/1.1/DTD/svg11.dtd"><svg t="1594609484518" class="icon" viewBox="0 0 1024 1024" version="1.1" xmlns="http://www.w3.org/2000/svg" p-id="1386" xmlns:xlink="http://www.w3.org/1999/xlink" width="200" height="200"><defs><style type="text/css"></style></defs><path d="M0 0h1024v1024H0z" fill="#ffffff" fill-opacity=".01" p-id="1387"></path><path d="M837.12 128.64c68.032 0 123.2 52.544 123.2 117.376v149.312c0 17.664-15.04 32-33.6 32-43.264 0-78.4 33.408-78.4 74.688 0 41.216 35.136 74.624 78.4 74.624 18.56 0 33.6 14.336 33.6 32v149.376c0 64.768-55.168 117.312-123.2 117.312H187.52c-68.032 0-123.2-52.48-123.2-117.312V608.64c0-17.664 15.04-32 33.6-32 43.328 0 78.4-33.408 78.4-74.624 0-41.28-35.072-74.688-78.4-74.688a32.832 32.832 0 0 1-33.6-32V246.016c0-64.832 55.168-117.376 123.2-117.376h649.6z m2.752 64H184.832a58.24 58.24 0 0 0-39.936 15.616 51.84 51.84 0 0 0-16.576 37.76v121.024C193.088 381.504 241.28 436.48 241.28 502.016c0 65.536-48.192 120.512-112.96 134.912v121.088a51.84 51.84 0 0 0 16.576 37.696 58.24 58.24 0 0 0 39.936 15.616h655.04a58.24 58.24 0 0 0 39.936-15.616 51.84 51.84 0 0 0 16.512-37.76v-120.96c-64.768-14.464-112.96-69.44-112.96-135.04 0-65.536 48.192-120.448 112.96-134.912V246.016a51.84 51.84 0 0 0-16.512-37.76 58.24 58.24 0 0 0-39.936-15.616z" fill="#ffffff" p-id="1388"></path><path d="M395.52 327.424a32 32 0 0 1 45.056 4.096l82.112 98.56 82.048-98.56a32 32 0 0 1 49.216 40.96L582.08 458.688h47.232a32 32 0 0 1 32 30.08v1.92a32 32 0 0 1-32 32H560v42.624h69.312a32 32 0 0 1 32 30.144v1.92a32 32 0 0 1-32 32H560v42.624a32 32 0 0 1-30.08 32h-1.92a32 32 0 0 1-32-32v-42.688H416a32 32 0 0 1-32-30.08v-1.92a32 32 0 0 1 32-32h80v-42.624H416a32 32 0 0 1-32-30.08v-1.92a32 32 0 0 1 32-32h47.232L391.424 372.48a32 32 0 0 1 2.56-43.712l1.536-1.344z" fill="#ffffff" p-id="1389"></path></svg>