<?xml version="1.0" standalone="no"?><!DOCTYPE svg PUBLIC "-//W3C//DTD SVG 1.1//EN" "http://www.w3.org/Graphics/SVG/1.1/DTD/svg11.dtd"><svg t="1611107563902" class="icon" viewBox="0 0 1024 1024" version="1.1" xmlns="http://www.w3.org/2000/svg" p-id="2815" xmlns:xlink="http://www.w3.org/1999/xlink" width="200" height="200"><defs><style type="text/css"></style></defs><path d="M1018.008911 333.169912a38.661355 38.661355 0 0 0-51.16944-23.310522l-75.617062 27.290368a425.274905 425.274905 0 0 0-167.153506-186.484183l33.544411-71.068668A38.661355 38.661355 0 0 0 739.419735 28.427467a38.661355 38.661355 0 0 0-51.16944 18.193579l-32.975862 71.068667A423.000708 423.000708 0 0 0 512 91.536444a409.924073 409.924073 0 0 0-106.318726 14.213733L379.528004 31.838763A38.661355 38.661355 0 0 0 306.753689 56.854934l26.721819 73.911414a418.452313 418.452313 0 0 0-184.209986 170.564801l-72.774315-34.11296a38.092806 38.092806 0 1 0-32.407313 69.363019l72.774316 34.68151A419.020863 419.020863 0 0 0 92.979137 511.694405a403.67003 403.67003 0 0 0 14.782283 108.592923l-78.459808 28.427467a38.092806 38.092806 0 0 0 12.508085 73.342865 33.544411 33.544411 0 0 0 13.076635 0l79.596907-28.427467a419.589412 419.589412 0 0 0 166.584956 180.79869l-36.955707 77.891259a38.661355 38.661355 0 0 0 18.762129 51.169441 32.975862 32.975862 0 0 0 15.919381 3.979845 38.661355 38.661355 0 0 0 35.250059-22.173424l36.955707-78.459809a413.335369 413.335369 0 0 0 141.000236 22.741974 444.605583 444.605583 0 0 0 103.47598-13.076635l28.996016 81.302555A38.661355 38.661355 0 0 0 682.564802 1023.388809a35.250059 35.250059 0 0 0 13.076634 0 38.661355 38.661355 0 0 0 23.310523-48.895243l-29.564565-81.871104a422.432159 422.432159 0 0 0 183.072887-163.74221l76.75416 35.818608a32.975862 32.975862 0 0 0 15.919382 3.979846 38.661355 38.661355 0 0 0 16.487931-73.342865l-75.617062-35.818608a413.903918 413.903918 0 0 0 14.213733-247.318963l76.754161-27.858917a37.524256 37.524256 0 0 0 21.036325-51.169441z m-730.5859 358.186084a34.11296 34.11296 0 0 1 68.225921 0 34.11296 34.11296 0 1 1-68.225921 0zM329.495662 511.694405a108.024374 108.024374 0 1 1 108.024375-108.024375A108.024374 108.024374 0 0 1 329.495662 511.694405z m252.435907-249.59316a34.11296 34.11296 0 1 1-34.112961 34.11296 34.11296 34.11296 0 0 1 34.112961-35.250059z m-53.443638 445.742682a68.225921 68.225921 0 0 1 135.883292 0 68.225921 68.225921 0 1 1-135.883292 0z m170.564801-170.564802a74.479963 74.479963 0 1 1 74.479964-74.479963 74.479963 74.479963 0 0 1-72.205766 74.479963z" p-id="2816"></path></svg>