<svg id="图层_1" data-name="图层 1" xmlns="http://www.w3.org/2000/svg" viewBox="0 0 14 14"><defs><style>.cls-1{fill:none;}.cls-2{opacity:0.8;}.cls-3{fill:#fff;}</style></defs><title>icon</title><rect class="cls-1" width="14" height="14"/><g class="cls-2"><path class="cls-3" d="M8,5.71h.61v.61a.23.23,0,0,0,.23.23.23.23,0,0,0,.23-.23V5.71H9.7a.23.23,0,0,0,.22-.23h0a.23.23,0,0,0-.23-.23H9.08V4.64a.23.23,0,0,0-.23-.23.23.23,0,0,0-.23.23v.61H8a.23.23,0,0,0-.23.23h0A.24.24,0,0,0,8,5.71Z"/><path class="cls-3" d="M10.89,1.29H3.12A.74.74,0,0,0,2.38,2V12a.74.74,0,0,0,.74.74h7.77a.74.74,0,0,0,.74-.74V2A.74.74,0,0,0,10.89,1.29ZM7.23,5.21,8.57,3.86h0a.38.38,0,0,1,.54,0l1.35,1.35a.38.38,0,0,1,0,.54L9.12,7.1h0a.38.38,0,0,1-.54,0L7.23,5.75A.38.38,0,0,1,7.23,5.21ZM3.69,3.91H5.78a.37.37,0,0,1,.37.37.38.38,0,0,1-.37.37H3.69a.38.38,0,0,1-.37-.37A.37.37,0,0,1,3.69,3.91Zm0,2.26H5.78a.38.38,0,0,1,.37.37.37.37,0,0,1-.37.37H3.69a.37.37,0,0,1-.37-.37A.38.38,0,0,1,3.69,6.17Zm6.57,5.35H3.75a.37.37,0,0,1-.37-.37.36.36,0,0,1,.37-.37h6.51a.36.36,0,0,1,.37.37A.37.37,0,0,1,10.26,11.52Zm0-1.84H3.75a.38.38,0,0,1,0-.75h6.51a.38.38,0,0,1,0,.75Z"/></g></svg>