<svg id="图层_1" data-name="图层 1" xmlns="http://www.w3.org/2000/svg" viewBox="0 0 14 14"><defs><style>.cls-1{fill:none;}.cls-2,.cls-4{opacity:0.8;}.cls-3,.cls-4{fill:#fff;}</style></defs><title>icon</title><rect class="cls-1" x="0.02" y="0.05" width="14" height="14"/><g class="cls-2"><path class="cls-3" d="M11.81,3.81H2.24a.5.5,0,0,0-.5.51v7.55a.5.5,0,0,0,.5.51h9.57a.51.51,0,0,0,.5-.51V4.32A.51.51,0,0,0,11.81,3.81ZM8.66,8.49a.47.47,0,0,1,.5.45.48.48,0,0,1-.5.46H7.47v1.09A.48.48,0,0,1,7,11a.48.48,0,0,1-.44-.51V9.4H5.38A.48.48,0,0,1,4.88,9a.49.49,0,0,1,.5-.46h1.2V7.84H5.38a.48.48,0,0,1-.5-.45.49.49,0,0,1,.5-.46H6L5.8,6.46,5.51,5.9a.49.49,0,0,1,.17-.66.46.46,0,0,1,.62.24l.23.45,0,0,.24.46h0L7,6.88l.24-.47h0L7.52,6s0,0,0,0l.23-.45a.47.47,0,0,1,.63-.24.48.48,0,0,1,.16.66l-.29.56L8,6.93h.65a.48.48,0,0,1,.49.46.47.47,0,0,1-.49.45H7.47v.65Z"/><rect class="cls-4" x="2.52" y="1.71" width="8.38" height="1.12" rx="0.56"/></g></svg>