<svg id="图层_1" data-name="图层 1" xmlns="http://www.w3.org/2000/svg" viewBox="0 0 14 14"><defs><style>.cls-1{fill:none;}.cls-2,.cls-4{opacity:0.8;}.cls-3,.cls-4{fill:#fff;}</style></defs><title>icon</title><rect class="cls-1" x="-0.01" width="14" height="14"/><g class="cls-2"><path class="cls-3" d="M8.14,1.42H2.07a.72.72,0,0,0-.72.72v9.78a.79.79,0,0,0,.8.8H3.71V10.57a.6.6,0,0,1,.6-.6H5.89a.6.6,0,0,1,.6.6v2.15H8.86V2.14A.72.72,0,0,0,8.14,1.42ZM6.29,5.66H5.51v.77a.41.41,0,0,1-.41.33.41.41,0,0,1-.41-.37V5.62H3.92a.39.39,0,0,1-.37-.41.41.41,0,0,1,.37-.41h.77V4.06A.38.38,0,0,1,5.1,3.7a.4.4,0,0,1,.41.36v.78h.78a.37.37,0,0,1,.36.41A.4.4,0,0,1,6.29,5.66Z"/><path class="cls-4" d="M12.14,7.6H8.87v5.12h3.07a.8.8,0,0,0,.8-.8V8.2A.6.6,0,0,0,12.14,7.6Zm-1,3.84h-.65a.31.31,0,1,1,0-.61h.65a.31.31,0,1,1,0,.61Zm0-1.41h-.65a.31.31,0,1,1,0-.61h.65a.31.31,0,1,1,0,.61Z"/></g></svg>