<svg id="图层_1" data-name="图层 1" xmlns="http://www.w3.org/2000/svg" viewBox="0 0 14 14"><defs><style>.cls-1{fill:none;}.cls-2,.cls-4{opacity:0.8;}.cls-3,.cls-4{fill:#fff;}</style></defs><title>icon</title><rect class="cls-1" width="14" height="14"/><g class="cls-2"><path class="cls-3" d="M7.69,3.57h0A3.9,3.9,0,0,1,6.56,2.46,8,8,0,0,1,6,1.15.5.5,0,0,0,5.38.81l-1.16.33a.52.52,0,0,0-.35.64,4.63,4.63,0,0,1,.18,1.29,7.33,7.33,0,0,1-.22,1.78A1.66,1.66,0,1,0,6.51,6.39a1.64,1.64,0,0,0,1.18.5,1.66,1.66,0,0,0,0-3.32Z"/><path class="cls-3" d="M8.53,8.11h-1c0-.22-.3-.41-.65-.41s-.65.19-.66.41H5.26a.48.48,0,0,0-.43.7l.88,1.7h0v2.13a.47.47,0,0,0,.47.48H7.6a.47.47,0,0,0,.48-.48V10.51h0L9,8.81A.47.47,0,0,0,8.53,8.11Z"/><rect class="cls-4" x="10.23" y="6.57" width="0.4" height="1.62" rx="0.2" transform="translate(17.82 -3.05) rotate(90)"/><rect class="cls-4" x="10.07" y="5.33" width="0.4" height="1.62" rx="0.2" transform="translate(10.45 -5.83) rotate(60)"/><rect class="cls-4" x="9.91" y="7.77" width="0.4" height="1.62" rx="0.2" transform="translate(-2.38 13.04) rotate(-60)"/></g></svg>