<?xml version="1.0" standalone="no"?><!DOCTYPE svg PUBLIC "-//W3C//DTD SVG 1.1//EN" "http://www.w3.org/Graphics/SVG/1.1/DTD/svg11.dtd"><svg t="1572070928580" class="icon" viewBox="0 0 1024 1024" version="1.1" xmlns="http://www.w3.org/2000/svg" p-id="2018" xmlns:xlink="http://www.w3.org/1999/xlink" width="200" height="200"><defs><style type="text/css"></style></defs><path d="M836.4 431.2h-71.6v-166.4c0-139.401-113.401-252.8-252.8-252.8s-252.8 113.401-252.8 252.8v166.4h-71.6c-34.4 0-62.4 28-62.4 62.4v455.801c0 34.601 28 62.601 62.4 62.601h648.8c34.4 0 62.4-28 62.4-62.601v-455.6c0-34.601-28-62.601-62.4-62.601v0zM547.001 733.401v99.6c0 4.4-3.6 8.201-8.201 8.201h-53.6c-4.601 0-8.201-3.801-8.201-8.201v-99.6c-25.2-12.8-42.601-38.8-42.601-69.001 0-42.8 34.8-77.799 77.6-77.799 43.001 0 77.801 34.8 77.801 77.799 0 30.4-17.401 56.201-42.8 69.001v0zM667.801 431.2h-311.6v-162.4c0-85.801 70-155.801 155.801-155.801s155.6 70 155.6 155.801l0.199 162.4zM667.801 431.2z" p-id="2019"></path></svg>