<svg id="图层_1" data-name="图层 1" xmlns="http://www.w3.org/2000/svg" viewBox="0 0 14 14"><defs><style>.cls-1{fill:none;}.cls-2,.cls-4{fill:#fff;}.cls-3{opacity:0.2;}.cls-4{opacity:0.8;}</style></defs><title>icon</title><rect class="cls-1" x="-0.02" width="14" height="14"/><path class="cls-2" d="M7.75,7.94H7.33V7.52a.29.29,0,0,0-.58,0v.42H6.33a.29.29,0,1,0,0,.58h.42v.42a.29.29,0,1,0,.58,0V8.52h.42a.29.29,0,1,0,0-.58Z"/><path class="cls-2" d="M9,3.3H5.1A1.87,1.87,0,0,0,3.24,5.18v6.1A1.87,1.87,0,0,0,5.1,13.15H8.8a2,2,0,0,0,2-2.06V5.18A1.87,1.87,0,0,0,9,3.3ZM7,9.83a1.6,1.6,0,1,1,1.6-1.6A1.6,1.6,0,0,1,7,9.83Z"/><g class="cls-3"><path d="M7.75,7.94H7.33V7.52a.29.29,0,0,0-.58,0v.42H6.33a.29.29,0,1,0,0,.58h.42v.42a.29.29,0,1,0,.58,0V8.52h.42a.29.29,0,1,0,0-.58Z"/><path d="M3.24,6v4.4h7.6V6ZM7,9.83a1.6,1.6,0,1,1,1.6-1.6A1.6,1.6,0,0,1,7,9.83Z"/></g><rect class="cls-4" x="3.84" y="0.97" width="6.4" height="1.8" rx="0.9"/></svg>