<svg id="图层_1" data-name="图层 1" xmlns="http://www.w3.org/2000/svg" viewBox="0 0 14 14"><defs><style>.cls-1{fill:none;}.cls-2{opacity:0.8;}.cls-3{fill:#fff;}</style></defs><title>icon</title><rect class="cls-1" x="0.02" y="-0.01" width="14" height="14"/><g class="cls-2"><path class="cls-3" d="M6.81,1.58H7.2v.33h.33v.38H7.2v.34H6.81V2.29H6.48V1.91h.33Zm2.64,6-.29-.07c-.37-.09-.71-.16-.9-.22a1.42,1.42,0,0,1,0,.22A4,4,0,0,1,7,9,4.23,4.23,0,0,1,5.8,7.47a1.89,1.89,0,0,1,0-.23c-.2.06-.56.13-1,.23l-.23.06-.2,1H5.2l-.39.68A10.41,10.41,0,0,0,7,10.15a10,10,0,0,0,2.19-.94L8.8,8.53h.85Zm0,0"/><path class="cls-3" d="M4.15,7.65c-.5.15-1,.35-1.1.58a25.73,25.73,0,0,0-.62,4.56.3.3,0,0,0,.3.31h8.55a.3.3,0,0,0,.3-.31A25.73,25.73,0,0,0,11,8.23c-.08-.23-.6-.43-1.1-.58l.16.81a.39.39,0,0,1-.3.45H9.46L9.53,9a.39.39,0,0,1-.15.52h0a11.2,11.2,0,0,1-1.1.54,9.39,9.39,0,0,1-1.09.4v1.56H6.81V10.49a11,11,0,0,1-1.09-.4,11,11,0,0,1-1.09-.54A.38.38,0,0,1,4.48,9V9l.06-.1H4.36A.38.38,0,0,1,4,8.53a.17.17,0,0,1,0-.07H4ZM5.44,2l-.06-.63h0a.18.18,0,0,1,.16-.2L7,.9A.08.08,0,0,1,7,.9l1.42.23a.2.2,0,0,1,.17.21L8.57,2a1.6,1.6,0,0,1,.24.22,4.2,4.2,0,0,1,.75,4.5,10.86,10.86,0,0,1-1.74-.07,3,3,0,0,0,.74-2.13V4.32A1.43,1.43,0,0,1,7.4,3.22,2.43,2.43,0,0,1,5.45,4.68a3,3,0,0,0,.74,1.94,10.89,10.89,0,0,1-1.74.07,4.2,4.2,0,0,1,.75-4.5A1.7,1.7,0,0,1,5.44,2Zm.45.85H8.12l.11-1.34L7,1.28l-1.22.2Zm2.45,7.94H9.77v.38H8.34Zm0,0"/></g></svg>