<svg t="1604657997903" class="icon" viewBox="0 0 1024 1024" version="1.1" xmlns="http://www.w3.org/2000/svg" p-id="4170" width="200" height="200"><path d="M870.29248 153.63584a245.632 245.632 0 0 0-346.99776 0l-369.63328 369.664a245.37088 245.37088 0 0 0 346.99776 347.02336l369.6384-369.664a245.66784 245.66784 0 0 0-0.00512-347.02336z m-595.4048 495.21664a70.30784 70.30784 0 0 0-20.05504 58.13248 33.96096 33.96096 0 0 1-19.26656 34.3808 34.51904 34.51904 0 0 1-49.26464-27.3664 139.23328 139.23328 0 0 1 39.87456-113.85856l54.10816-54.12352a34.42688 34.42688 0 0 1 48.6912 0 34.43712 34.43712 0 0 1 0 48.70144z m312.1664-11.97568L387.81952 433.38752a34.43712 34.43712 0 0 1 0.512-48.69632 34.42688 34.42688 0 0 1 48.6912 0.512l199.23456 203.48928a34.44224 34.44224 0 0 1-0.512 48.69632 34.42688 34.42688 0 0 1-48.6912-0.512z" fill="#ffffff" p-id="4171"></path></svg>