<svg id="图层_1" data-name="图层 1" xmlns="http://www.w3.org/2000/svg" viewBox="0 0 14 14"><defs><style>.cls-1{opacity:0.8;}.cls-2{fill:none;}.cls-3{fill:#fff;}.cls-4{fill:#304156;}</style></defs><title>web端菜单栏</title><g class="cls-1"><g class="cls-1"><rect class="cls-2" y="-0.2" width="14" height="14"/></g><path class="cls-3" d="M4.68,4.24c0-.28-.19-.38-.53-.38H3.79v.81h.36C4.49,4.67,4.68,4.53,4.68,4.24Z"/><path class="cls-3" d="M10.94,1.09H3.31a.8.8,0,0,0-.8.8v9.82a.8.8,0,0,0,.8.8h7.63a.8.8,0,0,0,.8-.8V1.89A.8.8,0,0,0,10.94,1.09ZM5.52,3.56h.71c.53,0,.9.18.9.71S6.76,5,6.25,5H5.89v.9H5.52Zm-2.1,0h.77c.49,0,.86.17.86.68a.67.67,0,0,1-.5.68l.58,1H4.71L4.18,5H3.79v1H3.42Zm7,7.72H3.87a.38.38,0,0,1-.37-.37.37.37,0,0,1,.37-.37h6.51a.37.37,0,0,1,.37.37A.38.38,0,0,1,10.38,11.28Zm0-1.83H3.87a.37.37,0,0,1-.37-.37.38.38,0,0,1,.37-.37h6.51a.38.38,0,0,1,.37.37A.37.37,0,0,1,10.38,9.45Z"/><path class="cls-3" d="M6.77,4.27c0-.31-.2-.41-.57-.41H5.89v.87h.32C6.59,4.73,6.77,4.58,6.77,4.27Z"/><path class="cls-4" d="M10.7,4.36,9.62,3.27a.31.31,0,0,0-.44,0h0L8.1,4.36a.3.3,0,0,0,0,.43L9.18,5.88a.31.31,0,0,0,.44,0h0L10.7,4.79A.3.3,0,0,0,10.7,4.36Zm-.61.4h-.5v.49a.19.19,0,0,1-.18.19.2.2,0,0,1-.19-.19V4.76H8.73a.18.18,0,0,1-.18-.18h0a.18.18,0,0,1,.18-.19h.49V3.9a.2.2,0,0,1,.19-.19.19.19,0,0,1,.18.19v.49h.5a.18.18,0,0,1,.18.18h0a.19.19,0,0,1-.18.18Z"/></g></svg>