<svg id="图层_1" data-name="图层 1" xmlns="http://www.w3.org/2000/svg" viewBox="0 0 14 14"><defs><style>.cls-1{fill:none;}.cls-2,.cls-4{opacity:0.8;}.cls-3,.cls-4{fill:#fff;}</style></defs><title>icon</title><rect class="cls-1" y="0.02" width="14" height="14"/><rect class="cls-1" x="0.89" y="3.25" width="12.22" height="7.52"/><g class="cls-2"><path class="cls-3" d="M13,9.89H11.85a1.2,1.2,0,0,0,.26-.72V4.41A1.16,1.16,0,0,0,11,3.26H3A1.15,1.15,0,0,0,1.88,4.41V9.17a1.2,1.2,0,0,0,.26.72H1A.11.11,0,0,0,.89,10v.29a.49.49,0,0,0,.48.48H12.63a.48.48,0,0,0,.47-.48V10A.12.12,0,0,0,13,9.89ZM2.65,4.41A.37.37,0,0,1,3,4H11a.37.37,0,0,1,.38.38V9.17a.38.38,0,0,1-.38.38H3a.38.38,0,0,1-.37-.38Zm3.4,6v-.32H7.67v.32Zm0,0"/><path class="cls-4" d="M2.64,4V7h8.71V4Zm5.3,1.52a.2.2,0,0,1-.2.2H7.19v.52a.2.2,0,0,1-.39,0V5.74H6.25a.2.2,0,0,1-.2-.19v0a.2.2,0,0,1,.2-.2H6.8V4.8A.2.2,0,0,1,7,4.6a.19.19,0,0,1,.19.2v.53h.55a.2.2,0,0,1,.2.19Z"/></g></svg>