<?xml version="1.0" standalone="no"?><!DOCTYPE svg PUBLIC "-//W3C//DTD SVG 1.1//EN" "http://www.w3.org/Graphics/SVG/1.1/DTD/svg11.dtd"><svg t="1594901325314" class="icon" viewBox="0 0 1024 1024" version="1.1" xmlns="http://www.w3.org/2000/svg" p-id="2171" xmlns:xlink="http://www.w3.org/1999/xlink" width="200" height="200"><defs><style type="text/css"></style></defs><path d="M844.288 120.32H179.712c-54.784 0-99.84 44.544-99.84 99.84v582.656c0 54.784 44.544 99.84 99.84 99.84h664.576c55.296 0 99.84-44.544 99.84-99.84V220.16c0-54.784-44.544-99.84-99.84-99.84z m41.984 99.84v134.144h-243.712V177.664h201.216c23.552 0 42.496 18.944 42.496 42.496z m-300.032-39.936v335.872l-61.44-30.72c-4.096-2.048-8.192-3.072-12.8-3.072s-8.704 1.024-12.8 3.072l-61.44 30.72V180.224h148.48z m257.536 665.088H179.2c-23.552 0-42.496-18.944-42.496-42.496V220.16c0-23.552 18.944-42.496 42.496-42.496h202.24v176.64H137.216v57.344h244.224v150.016c0 9.728 5.12 18.944 13.312 24.064s18.432 5.632 27.648 1.024l89.6-45.056 89.6 45.056c4.096 2.048 8.192 3.072 12.8 3.072 5.12 0 10.24-1.536 14.848-4.096 8.192-5.12 13.312-14.336 13.312-24.064V411.136h243.712v391.168c0 24.064-18.944 43.008-42.496 43.008z" fill="#ffffff" p-id="2172"></path></svg>