<svg id="图层_1" data-name="图层 1" xmlns="http://www.w3.org/2000/svg" viewBox="0 0 14 14"><defs><style>.cls-1{fill:none;}.cls-2{fill:#fff;opacity:0.8;}</style></defs><title>系统管理</title><rect class="cls-1" width="14" height="14"/><path class="cls-2" d="M7.51,1h-1a.43.43,0,0,0-.42.34L5.81,2.65A.42.42,0,0,1,5.54,3a2.17,2.17,0,0,0-.35.15.58.58,0,0,1-.19,0,.38.38,0,0,1-.23-.08L3.66,2.35a.44.44,0,0,0-.55,0l-.71.71a.44.44,0,0,0,0,.55l.74,1.1a.47.47,0,0,1,0,.43A2.17,2.17,0,0,0,3,5.54a.42.42,0,0,1-.32.27l-1.31.26A.43.43,0,0,0,1,6.49v1a.43.43,0,0,0,.34.42l1.31.26A.42.42,0,0,1,3,8.46a2.17,2.17,0,0,0,.15.35.45.45,0,0,1,0,.42l-.74,1.11a.44.44,0,0,0,0,.55l.71.71a.44.44,0,0,0,.55.05l1.11-.74A.48.48,0,0,1,5,10.84a.58.58,0,0,1,.19,0,2.17,2.17,0,0,0,.35.15.42.42,0,0,1,.27.32l.26,1.31a.43.43,0,0,0,.42.34h1a.43.43,0,0,0,.42-.34l.26-1.31A.42.42,0,0,1,8.46,11a2.17,2.17,0,0,0,.35-.15.58.58,0,0,1,.19,0,.48.48,0,0,1,.23.07l1.11.74a.44.44,0,0,0,.55-.05l.71-.71a.44.44,0,0,0,.05-.55l-.74-1.11a.45.45,0,0,1,0-.42A2.17,2.17,0,0,0,11,8.46a.42.42,0,0,1,.32-.27l1.31-.26A.43.43,0,0,0,13,7.51v-1a.43.43,0,0,0-.34-.42l-1.31-.26A.42.42,0,0,1,11,5.54a2.17,2.17,0,0,0-.15-.35.47.47,0,0,1,0-.43l.74-1.1a.44.44,0,0,0-.05-.55l-.71-.71a.44.44,0,0,0-.55,0l-1.11.73A.4.4,0,0,1,9,3.16a.58.58,0,0,1-.19,0A2.17,2.17,0,0,0,8.46,3a.42.42,0,0,1-.27-.32L7.93,1.34A.43.43,0,0,0,7.51,1ZM7,9.57a2.57,2.57,0,1,1,1.82-.75A2.57,2.57,0,0,1,7,9.57Z"/></svg>