<svg id="图层_1" data-name="图层 1" xmlns="http://www.w3.org/2000/svg" viewBox="0 0 14 14"><defs><style>.cls-1{fill:none;}.cls-2{fill:#fff;}</style></defs><title>icon</title><rect class="cls-1" width="14" height="14"/><path class="cls-2" d="M10,6.72,7.35,4.1a.74.74,0,0,0-1,0h0L3.69,6.72a.73.73,0,0,0,0,1l2.62,2.62a.73.73,0,0,0,1,0h0L10,7.76A.73.73,0,0,0,10,6.72Zm-1.48,1H7.29V8.86a.45.45,0,1,1-.89,0V7.68H5.22a.45.45,0,0,1-.45-.43h0a.45.45,0,0,1,.45-.44H6.4V5.61a.45.45,0,0,1,.89,0V6.8H8.48a.44.44,0,0,1,.44.43h0a.44.44,0,0,1-.43.44Z"/><path class="cls-2" d="M3.47,10a.32.32,0,0,0-.32-.33h0a.33.33,0,0,0-.33.33v.45a5,5,0,0,1,.33-6.8.4.4,0,0,0,0-.57.4.4,0,0,0-.56,0,5.88,5.88,0,0,0-.31,8H1.74a.33.33,0,0,0-.33.33h0a.33.33,0,0,0,.33.33H3.47Z"/><path class="cls-2" d="M11.66,3.2h.54a.32.32,0,0,0,.33-.32h0a.32.32,0,0,0-.33-.32H10.47V4.29a.32.32,0,0,0,.32.32h0a.32.32,0,0,0,.33-.32V3.84A5,5,0,0,1,12.28,7a5.1,5.1,0,0,1-1.49,3.61.39.39,0,0,0,0,.56.39.39,0,0,0,.56,0,5.88,5.88,0,0,0,.31-8Z"/></svg>