<svg id="图层_1" data-name="图层 1" xmlns="http://www.w3.org/2000/svg" viewBox="0 0 14 14"><defs><style>.cls-1{fill:none;}.cls-2{opacity:0.8;}.cls-3{fill:#fff;}</style></defs><title>icon</title><rect class="cls-1" width="14" height="14"/><g class="cls-2"><path class="cls-3" d="M9.69,3.17h0A2.48,2.48,0,0,0,7,.87,2.48,2.48,0,0,0,4.3,3.17c-.19,0-.34.45-.34,1s.16,1,.35,1C4.62,6.89,5.7,8,7,8S9.35,6.9,9.66,5.11c0,0,0,0,0,0h0c.2,0,.36-.43.36-1S9.89,3.17,9.69,3.17Z"/><path class="cls-3" d="M8.49,8.43a2.84,2.84,0,0,1-3.13,0C3.42,8.78,2,9.67,2,10.72c0,1.33,2.22,2.4,5,2.4s5-1.07,5-2.4C12,9.65,10.5,8.74,8.49,8.43Z"/></g></svg>