<svg id="图层_1" data-name="图层 1" xmlns="http://www.w3.org/2000/svg" viewBox="0 0 14 14"><defs><style>.cls-1{fill:none;}.cls-2{fill:#fff;opacity:0.8;}</style></defs><title>icon</title><rect class="cls-1" width="14" height="14"/><path class="cls-2" d="M11.39,1.47H2.61a.86.86,0,0,0-.84.86v7.91a.86.86,0,0,0,.84.87H5.23V12.3a.41.41,0,0,0,.23.39.67.67,0,0,0,.19.05.39.39,0,0,0,.26-.09l2-1.54h3.5a.86.86,0,0,0,.85-.87V2.33A.86.86,0,0,0,11.39,1.47ZM8.67,6.9H7.6V8a.57.57,0,0,1-1.12-.06V6.84H5.41a.51.51,0,0,1-.5-.56.55.55,0,0,1,.5-.56H6.48v-1A.52.52,0,0,1,7,4.2a.56.56,0,0,1,.56.51V5.77H8.67a.53.53,0,0,1,.51.57A.56.56,0,0,1,8.67,6.9Z"/></svg>