<svg width="8077" height="1392" xmlns="http://www.w3.org/2000/svg">
 <defs>
  <style type="text/css">
   <![CDATA[
    .fil3 {fill:#5BA997}
    .fil0 {fill:#332C2B;fill-rule:nonzero}
    .fil2 {fill:#5BA997;fill-rule:nonzero}
    .fil1 {fill:#CA5599;fill-rule:nonzero}
   ]]>
  </style>
 </defs>
 <g>
  <title>background</title>
  <rect fill="none" id="canvas_background" height="1394" width="8079" y="-1" x="-1"/>
 </g>
 <g>
  <title>Layer 1</title>
  <g id="图层_x0020_1">
   <metadata transform="translate(1,1) translate(0,-174.467529296875) translate(-163.0843505859375,0) translate(-1420.2064208984375,-2040.296630859375) translate(1,1) translate(-640.093017578125,-6100.88671875) translate(-4240.6162109375,-5840.84912109375) translate(1,1) translate(0,5428.5) translate(6462,0) translate(-6462,0) translate(6462,0) translate(-5538,0) " id="CorelCorpID_0Corel-Layer"/>
   <g id="_743256272">
    <path id="svg_1" d="m2116,550c-31,-42 -57,-83 -76,-123l0,392l-96,0l0,-349c-18,51 -49,111 -93,179l0,-110c38,-93 67,-194 90,-302l-73,0l0,-66l76,0l0,-120l96,0l0,120l66,0l0,66l-63,0c13,75 38,146 73,213l0,100zm389,253c-73,2 -108,-32 -106,-103l0,-641l96,0l0,631c-2,31 13,47 46,47l83,0l0,66l-120,0l1,0zm-385,0l0,-66l86,0c33,0 49,-15 46,-47l0,-631l93,0l0,641c2,71 -33,105 -106,103l-120,0l1,0zm508,-193c-38,-53 -75,-93 -113,-119l0,-96c44,24 82,53 113,86l0,130l0,-1zm-116,-282c20,-60 30,-117 30,-173l80,0c-4,66 -17,124 -37,173l-73,0zm-349,0c-20,-42 -32,-100 -37,-173l76,0c2,53 12,111 30,173l-70,0l1,0zm-40,282l0,-106c40,-29 75,-67 106,-116l0,116c-22,40 -58,75 -106,106zm644,-139l0,-73l346,0l0,-90c75,-38 141,-85 196,-143l-472,0l0,-73l641,0l0,73c-80,73 -163,130 -249,169l0,63l312,0l0,73l-312,0l0,209c0,86 -44,130 -133,130l-106,0l0,-73l66,0c40,0 59,-18 57,-53l0,-213l-346,0l0,1zm940,-302l0,-73l711,0l0,73l-488,0l-10,96l422,0l-27,445l130,0l0,66l-761,0l0,-66l525,0l7,-113l-442,0l50,-429l-116,0l-1,1zm525,170l-322,0l-20,186l329,0l13,-186zm355,-173l0,-70l329,0l0,70l-37,0l0,439c15,-4 33,-8 53,-10l0,63c-4,2 -9,4 -13,7c-11,2 -24,6 -40,10l0,143l-83,0l0,-123c-51,9 -123,17 -216,23l0,-80l43,-3l0,-468l-37,0l1,-1zm345,63l0,-70l53,0c-11,-24 -20,-57 -27,-96l93,0c7,42 17,74 30,96l86,0c13,-29 22,-60 27,-93l96,0c-4,29 -13,60 -27,93l63,0l0,70l-153,0l0,173l176,0l0,70l-173,0c9,111 66,203 173,276l0,70c-111,-53 -186,-122 -226,-206c-44,86 -119,155 -223,206l0,-66c104,-78 161,-171 170,-279l-159,0l0,-70l163,0l0,-173l-143,0l1,-1zm-223,399c29,0 58,-3 86,-10l0,-106l-86,0l0,116zm0,-462l0,106l86,0l0,-106l-86,0zm0,173l0,106l86,0l0,-106l-86,0zm820,472l0,-718l691,0l0,598c2,82 -39,122 -123,120l-57,0l0,-70l30,0c35,2 52,-13 50,-47l0,-528l-492,0l0,645l-100,0l1,0zm342,-96c-42,-53 -79,-102 -110,-146c-24,44 -60,93 -106,146l0,-86c31,-49 55,-92 73,-130c-35,-75 -61,-172 -76,-289l70,0c13,75 28,140 43,193c11,-35 23,-95 36,-179c0,4 1,0 3,-13l70,0c-20,129 -45,225 -76,289c20,40 44,83 73,130l0,86l0,-1zm13,0l0,-86c2,-2 5,-6 7,-10c29,-53 50,-93 63,-120c-33,-80 -58,-176 -73,-289l66,0c11,75 24,141 40,196c18,-60 31,-124 40,-193l70,0c-20,126 -45,221 -76,286c20,40 44,83 73,130l0,86c-46,-51 -82,-101 -106,-150c-22,44 -57,94 -103,150l-1,0zm677,76c-84,2 -125,-37 -123,-116l0,-591l711,0l0,70l-605,0l0,518c-2,40 18,59 60,57l555,0l0,63l-598,0l0,-1zm578,-96c-133,-31 -220,-79 -263,-143c-38,60 -132,107 -282,143l0,-60c117,-35 187,-86 209,-153l-223,0l0,-66l236,0c0,-7 0,-17 0,-30l0,-76l-106,0c-24,29 -66,50 -126,63l0,-53c51,-22 82,-67 93,-136l96,0c-7,22 -13,42 -20,60l345,0l0,66l-179,0l0,73c0,13 -1,24 -3,33l216,0l0,66l-199,0c40,71 108,121 206,150l0,63zm189,126l0,-734l243,0l0,70c-4,84 -21,156 -50,216c35,44 53,102 53,173c2,111 -46,165 -146,163l0,-80c47,2 70,-29 70,-93c0,-64 -20,-117 -60,-159c31,-62 48,-135 50,-219l-76,0l0,665l-83,0l-1,-2zm611,-20c-64,2 -95,-29 -93,-93l0,-193l-66,0c5,148 -65,251 -209,309l0,-66c78,-49 115,-130 113,-243l-90,0l0,-66l468,0l0,66l-120,0l0,193c-2,20 7,30 27,30l13,0c20,0 30,-10 30,-30l0,-33l63,0l0,40c2,60 -27,89 -86,86l-50,0zm-345,-545l0,-136l173,0l0,-63l113,0l0,63l176,0l0,136l-93,0l0,-70l-276,0l0,70l-93,0zm43,103l0,-66l379,0l0,66l-379,0z" class="fil0"/>
    <path id="svg_2" d="m1920,1338l0,-285l124,0c67,0 101,30 101,90c2,63 -32,93 -102,91l-69,0l0,103l-54,0l0,1zm54,-251l0,111l58,0c40,2 59,-17 57,-56c1,-38 -18,-57 -57,-56l-58,0l0,1zm231,250l0,-285l220,0l0,34l-166,0l0,87l155,0l0,34l-155,0l0,95l166,0l0,33l-220,0l0,2zm259,0l111,-285l66,0l110,285l-57,0l-28,-71l-118,0l-26,71l-58,0zm143,-234l-45,128l91,0l-46,-128zm445,37l-54,0c-11,-37 -33,-56 -66,-57c-53,3 -80,41 -82,115c3,70 34,107 94,111c41,1 76,-22 106,-68l0,48c-25,35 -64,53 -119,53c-87,-4 -132,-53 -136,-147c4,-93 49,-142 135,-147c67,2 108,32 123,91l-1,1zm62,197l0,-285l54,0l0,119l139,0l0,-119l54,0l0,285l-54,0l0,-130l-139,0l0,130l-54,0zm405,0l0,-286l54,0l0,286l-54,0zm124,0l0,-286l54,0l139,211l0,-211l54,0l0,286l-53,0l-140,-205l0,205l-54,0zm310,-250l0,-34l246,0l0,34l-97,0l0,250l-54,0l0,-250l-95,0zm308,250l0,-285l220,0l0,34l-166,0l0,87l155,0l0,34l-155,0l0,95l166,0l0,33l-220,0l0,2zm471,0l-85,-114l-52,0l0,114l-54,0l0,-286l136,0c68,0 102,29 102,87c1,50 -24,78 -74,83l90,115l-64,0l1,1zm-136,-250l0,101l70,0c40,1 59,-15 57,-48c1,-36 -18,-54 -57,-53l-70,0zm249,250l0,-286l54,0l139,211l0,-211l54,0l0,286l-53,0l-140,-205l0,205l-54,0zm319,0l0,-285l220,0l0,34l-166,0l0,87l155,0l0,34l-155,0l0,95l166,0l0,33l-220,0l0,2zm271,-250l0,-34l246,0l0,34l-97,0l0,250l-54,0l0,-250l-95,0zm397,250l0,-285l54,0l0,119l139,0l0,-119l54,0l0,285l-54,0l0,-130l-139,0l0,130l-54,0zm450,-28c56,-2 84,-39 86,-113c-3,-72 -31,-110 -85,-114c-55,4 -83,42 -86,114c3,72 31,109 85,113zm0,33c-89,-5 -136,-54 -140,-146c4,-95 52,-145 142,-148c87,5 134,55 140,148c-4,93 -52,141 -142,146zm198,-58l0,-44c33,47 71,70 115,69c42,-1 64,-16 65,-46c-1,-26 -21,-43 -61,-49c-79,-11 -117,-41 -111,-87c3,-50 38,-76 106,-78c65,1 104,30 115,87l-53,0c-10,-34 -30,-51 -61,-52c-34,0 -52,14 -52,41c-2,24 18,39 58,45c77,13 115,43 115,89c-1,56 -39,83 -114,83c-55,0 -96,-19 -123,-58l1,0zm298,53l0,-285l124,0c67,0 101,30 101,90c2,63 -32,93 -102,91l-69,0l0,103l-54,0l0,1zm54,-250l0,111l58,0c40,2 59,-17 57,-56c1,-38 -18,-57 -57,-56l-58,0l0,1zm229,250l0,-286l54,0l0,286l-54,0zm115,-250l0,-34l246,0l0,34l-97,0l0,250l-54,0l0,-250l-95,0zm287,250l111,-285l66,0l110,285l-57,0l-28,-71l-118,0l-26,71l-58,0zm143,-234l-45,128l91,0l-46,-128zm194,234l0,-285l54,0l0,252l151,0l0,33l-205,0z" class="fil0"/>
    <g id="svg_3">
     <g id="svg_4">
      <path id="svg_5" d="m654,155c-29,-46 -64,-63 -96,-62c-16,1 -31,6 -46,14c-15,9 -29,22 -40,37c-27,38 -36,93 -9,149c41,86 105,154 187,201c58,33 104,61 155,115l-54,62c-45,-45 -93,-82 -147,-113c-90,-52 -175,-134 -219,-228c-42,-88 -27,-175 16,-237c18,-26 41,-47 66,-62c26,-16 56,-25 86,-27c48,-2 97,15 139,57c30,-28 65,-45 99,-52c37,-8 75,-4 108,8c34,12 64,34 87,63c32,40 50,94 44,155c-8,80 -47,151 -100,210c-41,46 -91,86 -141,116c-22,-21 -45,-40 -76,-57c52,-27 107,-67 151,-117c42,-47 73,-102 79,-161c4,-37 -7,-69 -25,-92c-13,-16 -30,-28 -49,-36c-19,-7 -40,-9 -60,-5c-29,6 -59,25 -83,60l-38,55l-35,-56l1,3z" class="fil1"/>
      <path id="svg_6" d="m155,739c-46,29 -63,64 -62,96c1,16 6,31 14,46c9,15 22,29 37,40c38,27 93,36 149,9c86,-41 154,-105 201,-187c33,-58 61,-104 115,-155l62,54c-45,45 -82,93 -113,147c-52,90 -134,175 -228,219c-88,42 -175,27 -237,-16c-26,-18 -47,-41 -62,-66c-16,-26 -25,-56 -27,-86c-2,-48 15,-97 57,-139c-28,-30 -45,-65 -52,-99c-8,-37 -4,-75 8,-108c12,-34 34,-64 63,-87c40,-32 94,-50 155,-44c80,8 151,47 210,100c46,41 86,91 116,141c-21,22 -40,45 -57,76c-27,-52 -67,-107 -117,-151c-47,-42 -102,-73 -161,-79c-37,-4 -69,7 -92,25c-16,13 -29,30 -36,49c-7,19 -9,40 -5,60c6,29 25,59 60,83l55,38l-56,35l3,-1z" class="fil2"/>
      <path id="svg_7" d="m738,1238c29,46 64,63 96,62c16,-1 31,-6 46,-14c15,-9 29,-22 40,-37c27,-38 36,-93 9,-149c-41,-86 -105,-154 -187,-201c-58,-33 -104,-61 -155,-115l54,-62c45,45 93,82 147,113c90,52 175,134 219,228c42,88 27,175 -16,237c-18,26 -41,47 -66,62c-26,16 -56,25 -86,27c-48,2 -97,-15 -139,-57c-30,28 -65,45 -99,52c-37,8 -75,4 -108,-8c-34,-12 -64,-34 -87,-63c-32,-40 -50,-94 -44,-155c8,-80 47,-151 100,-210c41,-46 91,-86 141,-116c22,21 45,40 76,57c-52,27 -107,67 -151,117c-42,47 -73,102 -79,161c-4,37 7,69 25,92c13,16 30,28 49,36c19,7 40,9 60,5c29,-6 59,-25 83,-60l38,-55l35,56l-1,-3z" class="fil2"/>
      <path id="svg_8" d="m1237,654c46,-29 63,-64 62,-96c-1,-16 -6,-31 -14,-46c-9,-15 -22,-29 -37,-40c-38,-27 -93,-36 -149,-9c-86,41 -154,105 -201,187c-33,58 -61,104 -115,155l-62,-54c45,-45 82,-93 113,-147c52,-90 134,-175 228,-219c88,-42 175,-27 237,16c26,18 47,41 62,66c16,26 25,56 27,86c2,48 -15,97 -57,139c28,30 45,65 52,99c8,37 4,75 -8,108c-12,34 -34,64 -63,87c-40,32 -94,50 -155,44c-80,-8 -151,-47 -210,-100c-46,-41 -86,-91 -116,-141c21,-22 40,-45 57,-76c27,52 67,107 117,151c47,42 102,73 161,79c37,4 69,-7 92,-25c16,-13 28,-30 36,-49c7,-19 9,-40 5,-60c-6,-29 -25,-59 -60,-83l-55,-38l56,-35l-3,1z" class="fil2"/>
     </g>
     <g id="svg_9">
      <path id="svg_10" d="m1034,358c-2,-36 10,-74 38,-101c28,-28 65,-41 101,-38c2,36 -10,74 -38,101c-28,28 -65,41 -101,38z" class="fil3"/>
      <path id="svg_11" d="m357,359c-36,2 -74,-10 -101,-38c-28,-28 -41,-65 -38,-101c36,-2 74,10 101,38c28,28 41,65 38,101z" class="fil3"/>
      <path id="svg_12" d="m358,1036c2,36 -10,74 -38,101c-28,28 -65,41 -101,38c-2,-36 10,-74 38,-101c28,-28 65,-41 101,-38z" class="fil3"/>
      <path id="svg_13" d="m1035,1034c36,-2 74,10 101,38c28,28 41,65 38,101c-36,2 -74,-10 -101,-38c-28,-28 -41,-65 -38,-101z" class="fil3"/>
     </g>
     <g id="svg_14">
      <path id="svg_15" d="m443,697c-28,32 -69,52 -115,52c-46,0 -87,-20 -115,-52c28,-32 69,-52 115,-52c46,0 87,20 115,52z" class="fil3"/>
      <path id="svg_16" d="m697,950c32,28 52,69 52,115c0,46 -20,87 -52,115c-32,-28 -52,-69 -52,-115c0,-46 20,-87 52,-115z" class="fil3"/>
      <path id="svg_17" d="m949,696c28,-32 69,-52 115,-52c46,0 87,20 115,52c-28,32 -69,52 -115,52c-46,0 -87,-20 -115,-52z" class="fil3"/>
     </g>
    </g>
   </g>
  </g>
 </g>
</svg>